<svg xmlns="http://www.w3.org/2000/svg" xmlns:xlink="http://www.w3.org/1999/xlink" zoomAndPan="magnify" preserveAspectRatio="xMidYMid meet" version="1.0" viewBox="3.78 116.49 367.76 134.47"><defs><g/><clipPath id="541948a86d"><rect x="0" width="265" y="0" height="199"/></clipPath><clipPath id="739ff51654"><path d="M 266 144.769531 L 346 144.769531 L 346 224 L 266 224 Z M 266 144.769531 " clip-rule="nonzero"/></clipPath><clipPath id="3e9c5924cc"><path d="M 344.515625 137.605469 L 356 137.605469 L 356 151.855469 L 344.515625 151.855469 Z M 344.515625 137.605469 " clip-rule="nonzero"/></clipPath><clipPath id="c336e6eda3"><path d="M 357 137.605469 L 371.515625 137.605469 L 371.515625 151.855469 L 357 151.855469 Z M 357 137.605469 " clip-rule="nonzero"/></clipPath></defs><g transform="matrix(1, 0, 0, 1, 0, 66)"><g clip-path="url(#541948a86d)"><g fill="#38b6ff" fill-opacity="1"><g transform="translate(-0.749995, 155.909563)"><g><path d="M 60.65625 -77.890625 L 60.65625 -56.71875 L 43.25 -56.71875 L 43.25 0 L 22.078125 0 L 22.078125 -56.71875 L 4.53125 -56.71875 L 4.53125 -77.890625 L 22.078125 -77.890625 L 22.078125 -105.125 L 43.25 -105.125 L 43.25 -77.890625 Z M 60.65625 -77.890625 "/></g></g></g><g fill="#38b6ff" fill-opacity="1"><g transform="translate(64.429761, 155.909563)"><g><path d="M 25.5625 -105.421875 L 25.5625 -87.578125 L 4.53125 -87.578125 L 4.53125 -105.421875 Z M 25.71875 -77.75 L 25.71875 0 L 4.53125 0 L 4.53125 -77.75 Z M 25.71875 -77.75 "/></g></g></g><g fill="#38b6ff" fill-opacity="1"><g transform="translate(94.675595, 155.909563)"><g><path d="M 79.5625 -35.546875 C 79.65625 -33.429688 79.65625 -32.171875 79.5625 -31.765625 L 22.6875 -31.90625 C 23.488281 -29.59375 24.953125 -27.378906 27.078125 -25.265625 C 31.003906 -21.523438 35.539062 -19.65625 40.6875 -19.65625 C 46.132812 -19.863281 50.671875 -21.78125 54.296875 -25.40625 L 54.90625 -26.015625 L 74.5625 -19.8125 C 70.226562 -13.0625 65.691406 -8.222656 60.953125 -5.296875 C 55.609375 -1.867188 48.90625 -0.101562 40.84375 0 C 30.15625 0.101562 20.976562 -3.625 13.3125 -11.1875 C 5.644531 -18.75 1.757812 -27.925781 1.65625 -38.71875 C 1.5625 -49.40625 5.296875 -58.582031 12.859375 -66.25 C 20.421875 -73.914062 29.597656 -77.796875 40.390625 -77.890625 C 51.078125 -77.992188 60.25 -74.265625 67.90625 -66.703125 C 75.570312 -59.140625 79.457031 -49.960938 79.5625 -39.171875 Z M 40.53125 -58.078125 C 35.1875 -58.078125 30.648438 -56.210938 26.921875 -52.484375 C 25.003906 -50.367188 23.644531 -48.25 22.84375 -46.125 L 58.375 -46.125 C 57.570312 -48.25 56.160156 -50.421875 54.140625 -52.640625 C 50.316406 -56.265625 45.78125 -58.078125 40.53125 -58.078125 Z M 40.53125 -58.078125 "/></g></g></g><g fill="#38b6ff" fill-opacity="1"><g transform="translate(175.885648, 155.909563)"><g><path d="M 45.078125 -77.890625 C 55.765625 -77.992188 64.9375 -74.265625 72.59375 -66.703125 C 80.257812 -59.140625 84.144531 -49.960938 84.25 -39.171875 C 84.34375 -28.484375 80.609375 -19.304688 73.046875 -11.640625 C 65.484375 -3.984375 56.3125 -0.101562 45.53125 0 C 36.757812 0 30.15625 -2.769531 25.71875 -8.3125 L 25.71875 29.046875 L 4.53125 29.046875 L 4.53125 -77.75 L 25.71875 -77.75 L 25.71875 -69.578125 C 29.84375 -74.921875 36.296875 -77.691406 45.078125 -77.890625 Z M 58.984375 -25.40625 C 62.816406 -29.238281 64.632812 -33.773438 64.4375 -39.015625 C 64.4375 -44.359375 62.570312 -48.898438 58.84375 -52.640625 C 55.007812 -56.265625 50.46875 -58.078125 45.21875 -58.078125 C 39.875 -58.078125 35.335938 -56.210938 31.609375 -52.484375 C 27.878906 -48.546875 26.015625 -44.007812 26.015625 -38.875 C 26.210938 -33.425781 28.128906 -28.890625 31.765625 -25.265625 C 35.492188 -21.523438 40.03125 -19.65625 45.375 -19.65625 C 50.820312 -19.863281 55.359375 -21.78125 58.984375 -25.40625 Z M 58.984375 -25.40625 "/></g></g></g></g></g><g clip-path="url(#739ff51654)"><path fill="#ff751f" d="M 305.800781 144.769531 C 313.460938 144.769531 320.28125 146.605469 326.261719 150.3125 C 332.242188 153.988281 336.914062 158.6875 340.308594 164.417969 C 343.703125 170.148438 345.507812 176.503906 345.757812 183.480469 C 346.007812 190.453125 344.230469 197.304688 340.433594 204.003906 C 337.222656 209.546875 333.050781 213.9375 327.914062 217.238281 C 322.773438 220.539062 317.292969 222.59375 311.46875 223.433594 C 305.644531 224.246094 299.789062 223.777344 293.933594 221.972656 C 288.082031 220.164062 282.785156 216.957031 278.144531 212.285156 C 272.914062 206.960938 269.425781 200.792969 267.683594 193.816406 C 265.9375 186.84375 266.09375 179.835938 268.117188 172.859375 C 268.988281 170.054688 270.421875 167.71875 272.414062 165.882812 C 274.410156 164.046875 276.652344 162.675781 279.171875 161.804688 C 281.695312 160.929688 284.3125 160.527344 287.023438 160.652344 C 289.730469 160.746094 292.253906 161.304688 294.589844 162.332031 C 296.925781 163.359375 298.886719 164.792969 300.476562 166.691406 C 302.0625 168.59375 303.027344 170.898438 303.308594 173.605469 C 301.847656 172.546875 300.101562 171.988281 298.078125 171.925781 C 296.054688 171.863281 294.089844 172.296875 292.191406 173.234375 C 290.292969 174.167969 288.703125 175.570312 287.394531 177.46875 C 286.085938 179.367188 285.433594 181.703125 285.433594 184.539062 C 285.433594 189.394531 286.460938 193.414062 288.484375 196.621094 C 290.511719 199.828125 293.0625 202.226562 296.117188 203.816406 C 299.167969 205.402344 302.46875 206.214844 306.019531 206.214844 C 309.570312 206.214844 312.871094 205.402344 315.921875 203.753906 C 318.972656 202.101562 321.527344 199.640625 323.550781 196.402344 C 325.578125 193.164062 326.605469 189.117188 326.605469 184.257812 C 326.605469 180.457031 325.917969 177.125 324.582031 174.230469 C 323.210938 171.332031 321.402344 168.902344 319.128906 167.035156 C 316.855469 165.136719 314.210938 163.828125 311.1875 163.113281 C 308.167969 162.394531 304.992188 162.363281 301.597656 163.050781 C 300.132812 161.304688 298.359375 159.933594 296.269531 158.90625 C 294.183594 157.785156 291.941406 157.101562 289.511719 156.789062 C 287.085938 156.445312 284.65625 156.507812 282.226562 156.945312 C 279.796875 157.382812 277.523438 158.222656 275.375 159.5 C 279.265625 154.828125 283.75 151.214844 288.921875 148.660156 C 294.058594 146.046875 299.695312 144.769531 305.800781 144.769531 Z M 305.800781 144.769531 " fill-opacity="1" fill-rule="nonzero"/></g><g clip-path="url(#3e9c5924cc)"><path fill="#ffffff" d="M 348.761719 151.921875 L 348.761719 140.03125 L 344.515625 140.03125 L 344.515625 137.609375 L 355.886719 137.609375 L 355.886719 140.03125 L 351.652344 140.03125 L 351.652344 151.921875 Z M 348.761719 151.921875 " fill-opacity="1" fill-rule="nonzero"/></g><g clip-path="url(#c336e6eda3)"><path fill="#ffffff" d="M 357.714844 151.921875 L 357.714844 137.609375 L 362.039062 137.609375 L 364.636719 147.375 L 367.203125 137.609375 L 371.539062 137.609375 L 371.539062 151.921875 L 368.851562 151.921875 L 368.851562 140.65625 L 366.011719 151.921875 L 363.230469 151.921875 L 360.398438 140.65625 L 360.398438 151.921875 Z M 357.714844 151.921875 " fill-opacity="1" fill-rule="nonzero"/></g></svg>