<svg xmlns="http://www.w3.org/2000/svg" xmlns:xlink="http://www.w3.org/1999/xlink" width="500" zoomAndPan="magnify" viewBox="0 0 375 374.999991" height="500" preserveAspectRatio="xMidYMid meet" version="1.0"><defs><clipPath id="633a476282"><path d="M 5 4.308594 L 371.925781 4.308594 L 371.925781 369 L 5 369 Z M 5 4.308594 " clip-rule="nonzero"/></clipPath></defs><g clip-path="url(#633a476282)"><path fill="#ff751f" d="M 186.707031 4.308594 C 222.023438 4.308594 253.464844 12.78125 281.027344 29.863281 C 308.59375 46.804688 330.128906 68.484375 345.777344 94.898438 C 361.425781 121.316406 369.75 150.601562 370.898438 182.761719 C 372.046875 214.917969 363.863281 246.503906 346.351562 277.367188 C 331.5625 302.921875 312.324219 323.164062 288.636719 338.382812 C 264.949219 353.601562 239.683594 363.078125 212.835938 366.953125 C 185.988281 370.683594 159 368.53125 132.007812 360.207031 C 105.019531 351.878906 80.613281 337.089844 59.222656 315.558594 C 35.101562 291.007812 19.023438 262.582031 10.984375 230.421875 C 2.945312 198.265625 3.664062 165.964844 12.996094 133.804688 C 17.015625 120.882812 23.617188 110.117188 32.804688 101.648438 C 41.996094 93.175781 52.332031 86.859375 63.960938 82.839844 C 75.589844 78.820312 87.648438 76.953125 100.136719 77.527344 C 112.628906 77.957031 124.257812 80.542969 135.023438 85.28125 C 145.792969 90.019531 154.835938 96.621094 162.15625 105.378906 C 169.480469 114.136719 173.929688 124.761719 175.222656 137.25 C 168.472656 132.371094 160.433594 129.785156 151.101562 129.5 C 141.769531 129.210938 132.726562 131.222656 123.96875 135.527344 C 115.210938 139.835938 107.890625 146.296875 101.859375 155.050781 C 95.832031 163.808594 92.816406 174.578125 92.816406 187.640625 C 92.816406 210.039062 97.554688 228.558594 106.886719 243.34375 C 116.21875 258.132812 127.988281 269.1875 142.058594 276.507812 C 156.128906 283.828125 171.34375 287.5625 187.710938 287.5625 C 204.078125 287.5625 219.296875 283.828125 233.363281 276.21875 C 247.433594 268.613281 259.207031 257.269531 268.539062 242.339844 C 277.871094 227.410156 282.609375 208.746094 282.609375 186.347656 C 282.609375 168.835938 279.449219 153.472656 273.277344 140.121094 C 266.960938 126.769531 258.632812 115.574219 248.152344 106.957031 C 237.671875 98.203125 225.46875 92.171875 211.542969 88.871094 C 197.617188 85.566406 182.972656 85.425781 167.324219 88.582031 C 160.578125 80.542969 152.394531 74.226562 142.777344 69.488281 C 133.15625 64.320312 122.820312 61.160156 111.621094 59.726562 C 100.425781 58.148438 89.226562 58.433594 78.027344 60.445312 C 66.832031 62.453125 56.351562 66.328125 46.445312 72.214844 C 64.390625 50.679688 85.0625 34.027344 108.894531 22.257812 C 132.582031 10.195312 158.566406 4.308594 186.707031 4.308594 Z M 186.707031 4.308594 " fill-opacity="1" fill-rule="nonzero"/></g></svg>